<svg width="100" height="100" viewBox="0 0 100 100" fill="none" xmlns="http://www.w3.org/2000/svg">
<rect x="2.44604" y="2.53906" width="45" height="45" rx="5" fill="#30559A"/>
<circle cx="74.946" cy="25.0391" r="22.5" fill="#30559A"/>
<path d="M19.7636 55.6649C21.8989 51.3929 27.9932 51.3929 30.1285 55.6649L46.8269 89.0728C48.7531 92.9266 45.9517 97.4609 41.6445 97.4609H8.24763C3.9404 97.4609 1.13897 92.9266 3.06522 89.0728L19.7636 55.6649Z" fill="#30559A"/>
<path d="M70.2447 56.0437C71.7415 51.2667 78.2585 51.2667 79.7553 56.0437L81.6518 62.0966C82.3212 64.233 84.241 65.6794 86.4071 65.6794H92.5444C97.388 65.6794 99.4019 72.1069 95.4833 75.0592L90.5182 78.8002C88.7657 80.1205 88.0324 82.4608 88.7018 84.5972L90.5983 90.6501C92.0951 95.4272 86.8227 99.3995 82.9041 96.4472L77.9389 92.7063C76.1865 91.3859 73.8135 91.3859 72.0611 92.7063L67.0959 96.4472C63.1773 99.3995 57.905 95.4272 59.4017 90.6501L61.2982 84.5972C61.9676 82.4608 61.2343 80.1205 59.4819 78.8001L54.5167 75.0592C50.5981 72.1069 52.612 65.6794 57.4556 65.6794H63.5929C65.7591 65.6794 67.6788 64.233 68.3482 62.0966L70.2447 56.0437Z" fill="#30559A"/>
</svg>
