<svg width="213" height="114" viewBox="0 0 213 114" fill="none" xmlns="http://www.w3.org/2000/svg">
<g filter="url(#filter0_dii_501_17)">
<path d="M83.3356 86.647C83.3356 87.1993 82.8878 87.647 82.3356 87.647H79.1936C78.6413 87.647 78.1936 87.1993 78.1936 86.647V61.7359C78.1936 61.1836 78.6413 60.7359 79.1936 60.7359H82.3356C82.8878 60.7359 83.3356 61.1836 83.3356 61.7359V86.647ZM83.3356 55.1226C83.3356 55.6748 82.8878 56.1226 82.3356 56.1226H79.1936C78.6413 56.1226 78.1936 55.6748 78.1936 55.1226V51.1156C78.1936 50.5633 78.6413 50.1156 79.1936 50.1156H82.3356C82.8878 50.1156 83.3356 50.5633 83.3356 51.1156V55.1226Z" fill="#E0E9FF"/>
<path d="M111.677 86.647C111.677 87.1993 111.229 87.647 110.677 87.647H107.679C107.127 87.647 106.679 87.1993 106.679 86.647V71.5484C106.679 67.4156 105.174 65.3492 102.162 65.3492C100.112 65.3492 98.5579 66.1662 97.5007 67.8001C96.6357 69.2097 96.2032 71.0198 96.2032 73.2304V86.647C96.2032 87.1993 95.7555 87.647 95.2032 87.647H92.2054C91.6531 87.647 91.2054 87.1993 91.2054 86.647V68.0884C91.2054 66.839 91.1734 65.6696 91.1093 64.5803C91.0885 63.8509 91.0608 63.1487 91.0264 62.4735C90.9971 61.8966 91.4541 61.4087 92.0317 61.4087H95.1199C95.4793 61.4087 95.7707 61.7 95.7707 62.0595C95.7707 62.6889 96.6459 63.0036 97.134 62.6063C98.5874 61.4235 100.456 60.832 102.739 60.832C108.698 60.832 111.677 64.1478 111.677 70.7795V86.647Z" fill="#E0E9FF"/>
<path d="M130.104 64.9648C127.925 64.9648 126.307 65.9419 125.25 67.8962C124.353 69.498 123.905 71.6766 123.905 74.4317C123.905 80.5508 125.971 83.6104 130.104 83.6104C132.09 83.6104 133.66 82.6172 134.813 80.6309C135.742 78.933 136.207 76.8185 136.207 74.2876C136.207 71.7566 135.742 69.6422 134.813 67.9442C133.692 65.9579 132.122 64.9648 130.104 64.9648ZM141.06 86.6951C141.06 87.2474 140.613 87.6951 140.06 87.6951H136.834C136.488 87.6951 136.207 87.4144 136.207 87.0682C136.207 86.4769 135.417 86.1777 134.955 86.5475C133.521 87.697 131.744 88.2718 129.623 88.2718C126.131 88.2718 123.424 86.9743 121.502 84.3792C119.708 81.8483 118.811 78.5325 118.811 74.4317C118.811 70.2028 119.644 66.871 121.31 64.4362C123.136 61.713 125.907 60.3515 129.623 60.3515C131.314 60.3515 132.844 60.8114 134.214 61.7313C134.983 62.2479 136.207 61.7618 136.207 60.8353V50.1064C136.207 49.5542 136.655 49.1064 137.207 49.1064H140.06C140.613 49.1064 141.06 49.5542 141.06 50.1064V86.6951Z" fill="#E0E9FF"/>
<path d="M169.002 75.354C169.002 75.9063 168.554 76.354 168.002 76.354H153.85C153.281 76.354 152.822 76.8285 152.891 77.3929C153.111 79.2063 153.708 80.654 154.682 81.7362C155.867 83.1138 157.501 83.8026 159.583 83.8026C161.819 83.8026 163.852 83.4271 165.683 82.676C166.392 82.3854 167.224 82.8766 167.224 83.6423V86.089C167.224 86.5059 166.966 86.881 166.572 87.016C164.221 87.8211 161.843 88.2237 159.439 88.2237C155.306 88.2237 152.231 86.9102 150.212 84.2831C148.45 81.9444 147.569 78.6767 147.569 74.4798C147.569 70.4431 148.547 67.1593 150.501 64.6284C152.455 62.0975 155.082 60.832 158.382 60.832C162.066 60.832 164.821 62.1455 166.647 64.7726C168.217 67.0152 169.002 69.9786 169.002 73.6629V75.354ZM162.764 71.7887C163.316 71.7887 163.771 71.3396 163.713 70.7904C163.569 69.4289 163.122 68.2559 162.37 67.2715C161.409 65.99 160.144 65.3492 158.574 65.3492C156.972 65.3492 155.611 66.006 154.489 67.3195C153.597 68.3653 153.059 69.5227 152.877 70.7919C152.799 71.3386 153.255 71.7887 153.807 71.7887H162.764Z" fill="#E0E9FF"/>
<path d="M187.74 65.0037C187.74 65.6149 187.195 66.0774 186.587 66.022C186.234 65.9579 185.882 65.9259 185.53 65.9259C183.671 65.9259 182.294 66.839 181.397 68.6651C180.564 70.2669 180.147 72.2532 180.147 74.624V86.647C180.147 87.1993 179.7 87.647 179.147 87.647H176.005C175.453 87.647 175.005 87.1993 175.005 86.647V67.8481C175.005 66.6307 174.973 65.4934 174.909 64.4362C174.889 63.7518 174.863 63.0991 174.83 62.478C174.799 61.8995 175.257 61.4087 175.836 61.4087H179.271C179.649 61.4087 179.955 61.7151 179.955 62.093C179.955 62.7919 180.98 63.1012 181.474 62.6066C182.654 61.4235 184.022 60.832 185.578 60.832C186.04 60.832 186.509 60.8734 186.985 60.9561C187.434 61.034 187.74 61.4379 187.74 61.8929V65.0037Z" fill="#E0E9FF"/>
</g>
<g filter="url(#filter1_dii_501_17)">
<path d="M70.2491 84.4304C70.3092 85.2108 69.9131 85.9648 69.1946 86.2752C66.1132 87.6064 61.6792 88.272 55.8926 88.272C46.4761 88.272 38.9595 85.4085 33.3426 79.6815C27.7809 73.8444 25 66.1626 25 56.636C25 47.2195 27.8359 39.5927 33.5078 33.7556C39.1797 27.9186 46.6413 25 55.8926 25C61.7456 25 66.1566 25.5643 69.1256 26.6928C69.8816 26.9802 70.3064 27.7559 70.2432 28.5622L69.8989 32.9524C69.7936 34.2949 68.4146 35.1559 67.1187 34.7898C63.8989 33.8801 60.1569 33.4252 55.8926 33.4252C49.2295 33.4252 43.9155 35.5729 39.9507 39.8681C35.9859 44.1633 34.0035 49.7526 34.0035 56.636C34.0035 63.7947 35.9308 69.4115 39.7855 73.4865C43.6952 77.7266 49.0643 79.8467 55.8926 79.8467C60.2168 79.8467 63.8788 79.3385 66.8786 78.3221C68.2446 77.8593 69.8108 78.7317 69.9214 80.1697L70.2491 84.4304Z" fill="#058EFF"/>
</g>
<defs>
<filter id="filter0_dii_501_17" x="53.1936" y="24.1064" width="159.546" height="89.165" filterUnits="userSpaceOnUse" color-interpolation-filters="sRGB">
<feFlood flood-opacity="0" result="BackgroundImageFix"/>
<feColorMatrix in="SourceAlpha" type="matrix" values="0 0 0 0 0 0 0 0 0 0 0 0 0 0 0 0 0 0 127 0" result="hardAlpha"/>
<feOffset/>
<feGaussianBlur stdDeviation="12.5"/>
<feComposite in2="hardAlpha" operator="out"/>
<feColorMatrix type="matrix" values="0 0 0 0 0.878431 0 0 0 0 0.913725 0 0 0 0 1 0 0 0 0.25 0"/>
<feBlend mode="normal" in2="BackgroundImageFix" result="effect1_dropShadow_501_17"/>
<feBlend mode="normal" in="SourceGraphic" in2="effect1_dropShadow_501_17" result="shape"/>
<feColorMatrix in="SourceAlpha" type="matrix" values="0 0 0 0 0 0 0 0 0 0 0 0 0 0 0 0 0 0 127 0" result="hardAlpha"/>
<feOffset dy="-2"/>
<feGaussianBlur stdDeviation="2"/>
<feComposite in2="hardAlpha" operator="arithmetic" k2="-1" k3="1"/>
<feColorMatrix type="matrix" values="0 0 0 0 0 0 0 0 0 0 0 0 0 0 0 0 0 0 0.25 0"/>
<feBlend mode="normal" in2="shape" result="effect2_innerShadow_501_17"/>
<feColorMatrix in="SourceAlpha" type="matrix" values="0 0 0 0 0 0 0 0 0 0 0 0 0 0 0 0 0 0 127 0" result="hardAlpha"/>
<feOffset dy="4"/>
<feGaussianBlur stdDeviation="2"/>
<feComposite in2="hardAlpha" operator="arithmetic" k2="-1" k3="1"/>
<feColorMatrix type="matrix" values="0 0 0 0 1 0 0 0 0 1 0 0 0 0 1 0 0 0 0.12 0"/>
<feBlend mode="normal" in2="effect2_innerShadow_501_17" result="effect3_innerShadow_501_17"/>
</filter>
<filter id="filter1_dii_501_17" x="0" y="0" width="95.2551" height="113.271" filterUnits="userSpaceOnUse" color-interpolation-filters="sRGB">
<feFlood flood-opacity="0" result="BackgroundImageFix"/>
<feColorMatrix in="SourceAlpha" type="matrix" values="0 0 0 0 0 0 0 0 0 0 0 0 0 0 0 0 0 0 127 0" result="hardAlpha"/>
<feOffset/>
<feGaussianBlur stdDeviation="12.5"/>
<feComposite in2="hardAlpha" operator="out"/>
<feColorMatrix type="matrix" values="0 0 0 0 0.0196078 0 0 0 0 0.556863 0 0 0 0 1 0 0 0 0.25 0"/>
<feBlend mode="normal" in2="BackgroundImageFix" result="effect1_dropShadow_501_17"/>
<feBlend mode="normal" in="SourceGraphic" in2="effect1_dropShadow_501_17" result="shape"/>
<feColorMatrix in="SourceAlpha" type="matrix" values="0 0 0 0 0 0 0 0 0 0 0 0 0 0 0 0 0 0 127 0" result="hardAlpha"/>
<feOffset dy="-2"/>
<feGaussianBlur stdDeviation="2"/>
<feComposite in2="hardAlpha" operator="arithmetic" k2="-1" k3="1"/>
<feColorMatrix type="matrix" values="0 0 0 0 0 0 0 0 0 0 0 0 0 0 0 0 0 0 0.25 0"/>
<feBlend mode="normal" in2="shape" result="effect2_innerShadow_501_17"/>
<feColorMatrix in="SourceAlpha" type="matrix" values="0 0 0 0 0 0 0 0 0 0 0 0 0 0 0 0 0 0 127 0" result="hardAlpha"/>
<feOffset dy="4"/>
<feGaussianBlur stdDeviation="2"/>
<feComposite in2="hardAlpha" operator="arithmetic" k2="-1" k3="1"/>
<feColorMatrix type="matrix" values="0 0 0 0 1 0 0 0 0 1 0 0 0 0 1 0 0 0 0.19 0"/>
<feBlend mode="normal" in2="effect2_innerShadow_501_17" result="effect3_innerShadow_501_17"/>
</filter>
</defs>
</svg>
